<svg xmlns="http://www.w3.org/2000/svg" width="984" height="984" viewBox="0 0 984 984"><rect width="984" height="984" fill="#FFFFFF"/><g fill="#153A8A"><rect x="48" y="48" width="24" height="24"/><rect x="72" y="48" width="24" height="24"/><rect x="96" y="48" width="24" height="24"/><rect x="120" y="48" width="24" height="24"/><rect x="144" y="48" width="24" height="24"/><rect x="168" y="48" width="24" height="24"/><rect x="192" y="48" width="24" height="24"/><rect x="264" y="48" width="24" height="24"/><rect x="288" y="48" width="24" height="24"/><rect x="336" y="48" width="24" height="24"/><rect x="408" y="48" width="24" height="24"/><rect x="432" y="48" width="24" height="24"/><rect x="480" y="48" width="24" height="24"/><rect x="528" y="48" width="24" height="24"/><rect x="624" y="48" width="24" height="24"/><rect x="648" y="48" width="24" height="24"/><rect x="672" y="48" width="24" height="24"/><rect x="696" y="48" width="24" height="24"/><rect x="720" y="48" width="24" height="24"/><rect x="768" y="48" width="24" height="24"/><rect x="792" y="48" width="24" height="24"/><rect x="816" y="48" width="24" height="24"/><rect x="840" y="48" width="24" height="24"/><rect x="864" y="48" width="24" height="24"/><rect x="888" y="48" width="24" height="24"/><rect x="912" y="48" width="24" height="24"/><rect x="48" y="72" width="24" height="24"/><rect x="192" y="72" width="24" height="24"/><rect x="240" y="72" width="24" height="24"/><rect x="288" y="72" width="24" height="24"/><rect x="336" y="72" width="24" height="24"/><rect x="360" y="72" width="24" height="24"/><rect x="408" y="72" width="24" height="24"/><rect x="432" y="72" width="24" height="24"/><rect x="456" y="72" width="24" height="24"/><rect x="552" y="72" width="24" height="24"/><rect x="576" y="72" width="24" height="24"/><rect x="600" y="72" width="24" height="24"/><rect x="624" y="72" width="24" height="24"/><rect x="672" y="72" width="24" height="24"/><rect x="720" y="72" width="24" height="24"/><rect x="768" y="72" width="24" height="24"/><rect x="912" y="72" width="24" height="24"/><rect x="48" y="96" width="24" height="24"/><rect x="96" y="96" width="24" height="24"/><rect x="120" y="96" width="24" height="24"/><rect x="144" y="96" width="24" height="24"/><rect x="192" y="96" width="24" height="24"/><rect x="264" y="96" width="24" height="24"/><rect x="312" y="96" width="24" height="24"/><rect x="336" y="96" width="24" height="24"/><rect x="360" y="96" width="24" height="24"/><rect x="384" y="96" width="24" height="24"/><rect x="432" y="96" width="24" height="24"/><rect x="456" y="96" width="24" height="24"/><rect x="480" y="96" width="24" height="24"/><rect x="576" y="96" width="24" height="24"/><rect x="624" y="96" width="24" height="24"/><rect x="672" y="96" width="24" height="24"/><rect x="720" y="96" width="24" height="24"/><rect x="768" y="96" width="24" height="24"/><rect x="816" y="96" width="24" height="24"/><rect x="840" y="96" width="24" height="24"/><rect x="864" y="96" width="24" height="24"/><rect x="912" y="96" width="24" height="24"/><rect x="48" y="120" width="24" height="24"/><rect x="96" y="120" width="24" height="24"/><rect x="120" y="120" width="24" height="24"/><rect x="144" y="120" width="24" height="24"/><rect x="192" y="120" width="24" height="24"/><rect x="264" y="120" width="24" height="24"/><rect x="408" y="120" width="24" height="24"/><rect x="432" y="120" width="24" height="24"/><rect x="456" y="120" width="24" height="24"/><rect x="480" y="120" width="24" height="24"/><rect x="528" y="120" width="24" height="24"/><rect x="552" y="120" width="24" height="24"/><rect x="576" y="120" width="24" height="24"/><rect x="600" y="120" width="24" height="24"/><rect x="624" y="120" width="24" height="24"/><rect x="672" y="120" width="24" height="24"/><rect x="696" y="120" width="24" height="24"/><rect x="720" y="120" width="24" height="24"/><rect x="768" y="120" width="24" height="24"/><rect x="816" y="120" width="24" height="24"/><rect x="840" y="120" width="24" height="24"/><rect x="864" y="120" width="24" height="24"/><rect x="912" y="120" width="24" height="24"/><rect x="48" y="144" width="24" height="24"/><rect x="96" y="144" width="24" height="24"/><rect x="120" y="144" width="24" height="24"/><rect x="144" y="144" width="24" height="24"/><rect x="192" y="144" width="24" height="24"/><rect x="264" y="144" width="24" height="24"/><rect x="288" y="144" width="24" height="24"/><rect x="336" y="144" width="24" height="24"/><rect x="384" y="144" width="24" height="24"/><rect x="408" y="144" width="24" height="24"/><rect x="432" y="144" width="24" height="24"/><rect x="480" y="144" width="24" height="24"/><rect x="504" y="144" width="24" height="24"/><rect x="528" y="144" width="24" height="24"/><rect x="552" y="144" width="24" height="24"/><rect x="600" y="144" width="24" height="24"/><rect x="648" y="144" width="24" height="24"/><rect x="672" y="144" width="24" height="24"/><rect x="696" y="144" width="24" height="24"/><rect x="768" y="144" width="24" height="24"/><rect x="816" y="144" width="24" height="24"/><rect x="840" y="144" width="24" height="24"/><rect x="864" y="144" width="24" height="24"/><rect x="912" y="144" width="24" height="24"/><rect x="48" y="168" width="24" height="24"/><rect x="192" y="168" width="24" height="24"/><rect x="240" y="168" width="24" height="24"/><rect x="312" y="168" width="24" height="24"/><rect x="408" y="168" width="24" height="24"/><rect x="576" y="168" width="24" height="24"/><rect x="648" y="168" width="24" height="24"/><rect x="672" y="168" width="24" height="24"/><rect x="720" y="168" width="24" height="24"/><rect x="768" y="168" width="24" height="24"/><rect x="912" y="168" width="24" height="24"/><rect x="48" y="192" width="24" height="24"/><rect x="72" y="192" width="24" height="24"/><rect x="96" y="192" width="24" height="24"/><rect x="120" y="192" width="24" height="24"/><rect x="144" y="192" width="24" height="24"/><rect x="168" y="192" width="24" height="24"/><rect x="192" y="192" width="24" height="24"/><rect x="240" y="192" width="24" height="24"/><rect x="288" y="192" width="24" height="24"/><rect x="336" y="192" width="24" height="24"/><rect x="384" y="192" width="24" height="24"/><rect x="432" y="192" width="24" height="24"/><rect x="480" y="192" width="24" height="24"/><rect x="528" y="192" width="24" height="24"/><rect x="576" y="192" width="24" height="24"/><rect x="624" y="192" width="24" height="24"/><rect x="672" y="192" width="24" height="24"/><rect x="720" y="192" width="24" height="24"/><rect x="768" y="192" width="24" height="24"/><rect x="792" y="192" width="24" height="24"/><rect x="816" y="192" width="24" height="24"/><rect x="840" y="192" width="24" height="24"/><rect x="864" y="192" width="24" height="24"/><rect x="888" y="192" width="24" height="24"/><rect x="912" y="192" width="24" height="24"/><rect x="240" y="216" width="24" height="24"/><rect x="312" y="216" width="24" height="24"/><rect x="336" y="216" width="24" height="24"/><rect x="360" y="216" width="24" height="24"/><rect x="432" y="216" width="24" height="24"/><rect x="456" y="216" width="24" height="24"/><rect x="480" y="216" width="24" height="24"/><rect x="528" y="216" width="24" height="24"/><rect x="672" y="216" width="24" height="24"/><rect x="144" y="240" width="24" height="24"/><rect x="168" y="240" width="24" height="24"/><rect x="192" y="240" width="24" height="24"/><rect x="216" y="240" width="24" height="24"/><rect x="264" y="240" width="24" height="24"/><rect x="384" y="240" width="24" height="24"/><rect x="408" y="240" width="24" height="24"/><rect x="480" y="240" width="24" height="24"/><rect x="600" y="240" width="24" height="24"/><rect x="624" y="240" width="24" height="24"/><rect x="648" y="240" width="24" height="24"/><rect x="672" y="240" width="24" height="24"/><rect x="696" y="240" width="24" height="24"/><rect x="768" y="240" width="24" height="24"/><rect x="792" y="240" width="24" height="24"/><rect x="888" y="240" width="24" height="24"/><rect x="48" y="264" width="24" height="24"/><rect x="72" y="264" width="24" height="24"/><rect x="96" y="264" width="24" height="24"/><rect x="120" y="264" width="24" height="24"/><rect x="168" y="264" width="24" height="24"/><rect x="288" y="264" width="24" height="24"/><rect x="408" y="264" width="24" height="24"/><rect x="504" y="264" width="24" height="24"/><rect x="528" y="264" width="24" height="24"/><rect x="552" y="264" width="24" height="24"/><rect x="576" y="264" width="24" height="24"/><rect x="624" y="264" width="24" height="24"/><rect x="720" y="264" width="24" height="24"/><rect x="816" y="264" width="24" height="24"/><rect x="888" y="264" width="24" height="24"/><rect x="48" y="288" width="24" height="24"/><rect x="72" y="288" width="24" height="24"/><rect x="120" y="288" width="24" height="24"/><rect x="144" y="288" width="24" height="24"/><rect x="168" y="288" width="24" height="24"/><rect x="192" y="288" width="24" height="24"/><rect x="216" y="288" width="24" height="24"/><rect x="240" y="288" width="24" height="24"/><rect x="312" y="288" width="24" height="24"/><rect x="360" y="288" width="24" height="24"/><rect x="432" y="288" width="24" height="24"/><rect x="456" y="288" width="24" height="24"/><rect x="576" y="288" width="24" height="24"/><rect x="600" y="288" width="24" height="24"/><rect x="648" y="288" width="24" height="24"/><rect x="672" y="288" width="24" height="24"/><rect x="720" y="288" width="24" height="24"/><rect x="744" y="288" width="24" height="24"/><rect x="792" y="288" width="24" height="24"/><rect x="840" y="288" width="24" height="24"/><rect x="888" y="288" width="24" height="24"/><rect x="96" y="312" width="24" height="24"/><rect x="168" y="312" width="24" height="24"/><rect x="216" y="312" width="24" height="24"/><rect x="240" y="312" width="24" height="24"/><rect x="312" y="312" width="24" height="24"/><rect x="336" y="312" width="24" height="24"/><rect x="360" y="312" width="24" height="24"/><rect x="384" y="312" width="24" height="24"/><rect x="408" y="312" width="24" height="24"/><rect x="432" y="312" width="24" height="24"/><rect x="456" y="312" width="24" height="24"/><rect x="480" y="312" width="24" height="24"/><rect x="504" y="312" width="24" height="24"/><rect x="528" y="312" width="24" height="24"/><rect x="552" y="312" width="24" height="24"/><rect x="576" y="312" width="24" height="24"/><rect x="600" y="312" width="24" height="24"/><rect x="672" y="312" width="24" height="24"/><rect x="744" y="312" width="24" height="24"/><rect x="816" y="312" width="24" height="24"/><rect x="864" y="312" width="24" height="24"/><rect x="912" y="312" width="24" height="24"/><rect x="120" y="336" width="24" height="24"/><rect x="192" y="336" width="24" height="24"/><rect x="216" y="336" width="24" height="24"/><rect x="288" y="336" width="24" height="24"/><rect x="312" y="336" width="24" height="24"/><rect x="384" y="336" width="24" height="24"/><rect x="432" y="336" width="24" height="24"/><rect x="456" y="336" width="24" height="24"/><rect x="480" y="336" width="24" height="24"/><rect x="504" y="336" width="24" height="24"/><rect x="528" y="336" width="24" height="24"/><rect x="552" y="336" width="24" height="24"/><rect x="576" y="336" width="24" height="24"/><rect x="600" y="336" width="24" height="24"/><rect x="624" y="336" width="24" height="24"/><rect x="696" y="336" width="24" height="24"/><rect x="744" y="336" width="24" height="24"/><rect x="768" y="336" width="24" height="24"/><rect x="792" y="336" width="24" height="24"/><rect x="816" y="336" width="24" height="24"/><rect x="864" y="336" width="24" height="24"/><rect x="912" y="336" width="24" height="24"/><rect x="48" y="360" width="24" height="24"/><rect x="72" y="360" width="24" height="24"/><rect x="96" y="360" width="24" height="24"/><rect x="144" y="360" width="24" height="24"/><rect x="216" y="360" width="24" height="24"/><rect x="240" y="360" width="24" height="24"/><rect x="264" y="360" width="24" height="24"/><rect x="312" y="360" width="24" height="24"/><rect x="336" y="360" width="24" height="24"/><rect x="408" y="360" width="24" height="24"/><rect x="528" y="360" width="24" height="24"/><rect x="600" y="360" width="24" height="24"/><rect x="648" y="360" width="24" height="24"/><rect x="672" y="360" width="24" height="24"/><rect x="696" y="360" width="24" height="24"/><rect x="720" y="360" width="24" height="24"/><rect x="744" y="360" width="24" height="24"/><rect x="816" y="360" width="24" height="24"/><rect x="864" y="360" width="24" height="24"/><rect x="96" y="384" width="24" height="24"/><rect x="120" y="384" width="24" height="24"/><rect x="192" y="384" width="24" height="24"/><rect x="216" y="384" width="24" height="24"/><rect x="240" y="384" width="24" height="24"/><rect x="264" y="384" width="24" height="24"/><rect x="288" y="384" width="24" height="24"/><rect x="312" y="384" width="24" height="24"/><rect x="360" y="384" width="24" height="24"/><rect x="408" y="384" width="24" height="24"/><rect x="432" y="384" width="24" height="24"/><rect x="456" y="384" width="24" height="24"/><rect x="480" y="384" width="24" height="24"/><rect x="504" y="384" width="24" height="24"/><rect x="552" y="384" width="24" height="24"/><rect x="576" y="384" width="24" height="24"/><rect x="624" y="384" width="24" height="24"/><rect x="648" y="384" width="24" height="24"/><rect x="672" y="384" width="24" height="24"/><rect x="696" y="384" width="24" height="24"/><rect x="720" y="384" width="24" height="24"/><rect x="768" y="384" width="24" height="24"/><rect x="792" y="384" width="24" height="24"/><rect x="840" y="384" width="24" height="24"/><rect x="864" y="384" width="24" height="24"/><rect x="48" y="408" width="24" height="24"/><rect x="96" y="408" width="24" height="24"/><rect x="120" y="408" width="24" height="24"/><rect x="144" y="408" width="24" height="24"/><rect x="168" y="408" width="24" height="24"/><rect x="240" y="408" width="24" height="24"/><rect x="312" y="408" width="24" height="24"/><rect x="360" y="408" width="24" height="24"/><rect x="384" y="408" width="24" height="24"/><rect x="408" y="408" width="24" height="24"/><rect x="432" y="408" width="24" height="24"/><rect x="456" y="408" width="24" height="24"/><rect x="480" y="408" width="24" height="24"/><rect x="528" y="408" width="24" height="24"/><rect x="552" y="408" width="24" height="24"/><rect x="576" y="408" width="24" height="24"/><rect x="600" y="408" width="24" height="24"/><rect x="624" y="408" width="24" height="24"/><rect x="768" y="408" width="24" height="24"/><rect x="816" y="408" width="24" height="24"/><rect x="864" y="408" width="24" height="24"/><rect x="888" y="408" width="24" height="24"/><rect x="96" y="432" width="24" height="24"/><rect x="192" y="432" width="24" height="24"/><rect x="264" y="432" width="24" height="24"/><rect x="288" y="432" width="24" height="24"/><rect x="336" y="432" width="24" height="24"/><rect x="384" y="432" width="24" height="24"/><rect x="432" y="432" width="24" height="24"/><rect x="456" y="432" width="24" height="24"/><rect x="480" y="432" width="24" height="24"/><rect x="576" y="432" width="24" height="24"/><rect x="648" y="432" width="24" height="24"/><rect x="744" y="432" width="24" height="24"/><rect x="768" y="432" width="24" height="24"/><rect x="792" y="432" width="24" height="24"/><rect x="840" y="432" width="24" height="24"/><rect x="864" y="432" width="24" height="24"/><rect x="912" y="432" width="24" height="24"/><rect x="48" y="456" width="24" height="24"/><rect x="72" y="456" width="24" height="24"/><rect x="96" y="456" width="24" height="24"/><rect x="120" y="456" width="24" height="24"/><rect x="168" y="456" width="24" height="24"/><rect x="240" y="456" width="24" height="24"/><rect x="264" y="456" width="24" height="24"/><rect x="288" y="456" width="24" height="24"/><rect x="312" y="456" width="24" height="24"/><rect x="336" y="456" width="24" height="24"/><rect x="384" y="456" width="24" height="24"/><rect x="408" y="456" width="24" height="24"/><rect x="432" y="456" width="24" height="24"/><rect x="504" y="456" width="24" height="24"/><rect x="528" y="456" width="24" height="24"/><rect x="552" y="456" width="24" height="24"/><rect x="600" y="456" width="24" height="24"/><rect x="648" y="456" width="24" height="24"/><rect x="672" y="456" width="24" height="24"/><rect x="720" y="456" width="24" height="24"/><rect x="744" y="456" width="24" height="24"/><rect x="792" y="456" width="24" height="24"/><rect x="816" y="456" width="24" height="24"/><rect x="72" y="480" width="24" height="24"/><rect x="192" y="480" width="24" height="24"/><rect x="288" y="480" width="24" height="24"/><rect x="480" y="480" width="24" height="24"/><rect x="504" y="480" width="24" height="24"/><rect x="528" y="480" width="24" height="24"/><rect x="552" y="480" width="24" height="24"/><rect x="600" y="480" width="24" height="24"/><rect x="672" y="480" width="24" height="24"/><rect x="696" y="480" width="24" height="24"/><rect x="744" y="480" width="24" height="24"/><rect x="792" y="480" width="24" height="24"/><rect x="864" y="480" width="24" height="24"/><rect x="48" y="504" width="24" height="24"/><rect x="72" y="504" width="24" height="24"/><rect x="96" y="504" width="24" height="24"/><rect x="144" y="504" width="24" height="24"/><rect x="168" y="504" width="24" height="24"/><rect x="240" y="504" width="24" height="24"/><rect x="288" y="504" width="24" height="24"/><rect x="336" y="504" width="24" height="24"/><rect x="360" y="504" width="24" height="24"/><rect x="408" y="504" width="24" height="24"/><rect x="432" y="504" width="24" height="24"/><rect x="552" y="504" width="24" height="24"/><rect x="600" y="504" width="24" height="24"/><rect x="624" y="504" width="24" height="24"/><rect x="672" y="504" width="24" height="24"/><rect x="744" y="504" width="24" height="24"/><rect x="768" y="504" width="24" height="24"/><rect x="792" y="504" width="24" height="24"/><rect x="864" y="504" width="24" height="24"/><rect x="912" y="504" width="24" height="24"/><rect x="72" y="528" width="24" height="24"/><rect x="96" y="528" width="24" height="24"/><rect x="120" y="528" width="24" height="24"/><rect x="144" y="528" width="24" height="24"/><rect x="168" y="528" width="24" height="24"/><rect x="192" y="528" width="24" height="24"/><rect x="216" y="528" width="24" height="24"/><rect x="264" y="528" width="24" height="24"/><rect x="312" y="528" width="24" height="24"/><rect x="336" y="528" width="24" height="24"/><rect x="360" y="528" width="24" height="24"/><rect x="408" y="528" width="24" height="24"/><rect x="432" y="528" width="24" height="24"/><rect x="552" y="528" width="24" height="24"/><rect x="576" y="528" width="24" height="24"/><rect x="600" y="528" width="24" height="24"/><rect x="624" y="528" width="24" height="24"/><rect x="648" y="528" width="24" height="24"/><rect x="696" y="528" width="24" height="24"/><rect x="744" y="528" width="24" height="24"/><rect x="768" y="528" width="24" height="24"/><rect x="864" y="528" width="24" height="24"/><rect x="888" y="528" width="24" height="24"/><rect x="912" y="528" width="24" height="24"/><rect x="96" y="552" width="24" height="24"/><rect x="168" y="552" width="24" height="24"/><rect x="216" y="552" width="24" height="24"/><rect x="288" y="552" width="24" height="24"/><rect x="312" y="552" width="24" height="24"/><rect x="336" y="552" width="24" height="24"/><rect x="360" y="552" width="24" height="24"/><rect x="384" y="552" width="24" height="24"/><rect x="432" y="552" width="24" height="24"/><rect x="480" y="552" width="24" height="24"/><rect x="600" y="552" width="24" height="24"/><rect x="672" y="552" width="24" height="24"/><rect x="696" y="552" width="24" height="24"/><rect x="816" y="552" width="24" height="24"/><rect x="864" y="552" width="24" height="24"/><rect x="888" y="552" width="24" height="24"/><rect x="192" y="576" width="24" height="24"/><rect x="240" y="576" width="24" height="24"/><rect x="264" y="576" width="24" height="24"/><rect x="288" y="576" width="24" height="24"/><rect x="336" y="576" width="24" height="24"/><rect x="432" y="576" width="24" height="24"/><rect x="456" y="576" width="24" height="24"/><rect x="480" y="576" width="24" height="24"/><rect x="504" y="576" width="24" height="24"/><rect x="600" y="576" width="24" height="24"/><rect x="648" y="576" width="24" height="24"/><rect x="672" y="576" width="24" height="24"/><rect x="696" y="576" width="24" height="24"/><rect x="720" y="576" width="24" height="24"/><rect x="840" y="576" width="24" height="24"/><rect x="864" y="576" width="24" height="24"/><rect x="48" y="600" width="24" height="24"/><rect x="120" y="600" width="24" height="24"/><rect x="144" y="600" width="24" height="24"/><rect x="168" y="600" width="24" height="24"/><rect x="288" y="600" width="24" height="24"/><rect x="336" y="600" width="24" height="24"/><rect x="360" y="600" width="24" height="24"/><rect x="408" y="600" width="24" height="24"/><rect x="432" y="600" width="24" height="24"/><rect x="456" y="600" width="24" height="24"/><rect x="504" y="600" width="24" height="24"/><rect x="528" y="600" width="24" height="24"/><rect x="552" y="600" width="24" height="24"/><rect x="576" y="600" width="24" height="24"/><rect x="624" y="600" width="24" height="24"/><rect x="648" y="600" width="24" height="24"/><rect x="720" y="600" width="24" height="24"/><rect x="792" y="600" width="24" height="24"/><rect x="864" y="600" width="24" height="24"/><rect x="912" y="600" width="24" height="24"/><rect x="72" y="624" width="24" height="24"/><rect x="144" y="624" width="24" height="24"/><rect x="192" y="624" width="24" height="24"/><rect x="216" y="624" width="24" height="24"/><rect x="240" y="624" width="24" height="24"/><rect x="336" y="624" width="24" height="24"/><rect x="408" y="624" width="24" height="24"/><rect x="480" y="624" width="24" height="24"/><rect x="504" y="624" width="24" height="24"/><rect x="552" y="624" width="24" height="24"/><rect x="576" y="624" width="24" height="24"/><rect x="600" y="624" width="24" height="24"/><rect x="624" y="624" width="24" height="24"/><rect x="648" y="624" width="24" height="24"/><rect x="696" y="624" width="24" height="24"/><rect x="744" y="624" width="24" height="24"/><rect x="768" y="624" width="24" height="24"/><rect x="792" y="624" width="24" height="24"/><rect x="888" y="624" width="24" height="24"/><rect x="48" y="648" width="24" height="24"/><rect x="144" y="648" width="24" height="24"/><rect x="264" y="648" width="24" height="24"/><rect x="288" y="648" width="24" height="24"/><rect x="312" y="648" width="24" height="24"/><rect x="336" y="648" width="24" height="24"/><rect x="360" y="648" width="24" height="24"/><rect x="384" y="648" width="24" height="24"/><rect x="408" y="648" width="24" height="24"/><rect x="456" y="648" width="24" height="24"/><rect x="528" y="648" width="24" height="24"/><rect x="552" y="648" width="24" height="24"/><rect x="648" y="648" width="24" height="24"/><rect x="672" y="648" width="24" height="24"/><rect x="744" y="648" width="24" height="24"/><rect x="816" y="648" width="24" height="24"/><rect x="840" y="648" width="24" height="24"/><rect x="144" y="672" width="24" height="24"/><rect x="168" y="672" width="24" height="24"/><rect x="192" y="672" width="24" height="24"/><rect x="240" y="672" width="24" height="24"/><rect x="288" y="672" width="24" height="24"/><rect x="336" y="672" width="24" height="24"/><rect x="384" y="672" width="24" height="24"/><rect x="408" y="672" width="24" height="24"/><rect x="432" y="672" width="24" height="24"/><rect x="456" y="672" width="24" height="24"/><rect x="552" y="672" width="24" height="24"/><rect x="648" y="672" width="24" height="24"/><rect x="672" y="672" width="24" height="24"/><rect x="696" y="672" width="24" height="24"/><rect x="744" y="672" width="24" height="24"/><rect x="816" y="672" width="24" height="24"/><rect x="864" y="672" width="24" height="24"/><rect x="96" y="696" width="24" height="24"/><rect x="120" y="696" width="24" height="24"/><rect x="240" y="696" width="24" height="24"/><rect x="264" y="696" width="24" height="24"/><rect x="288" y="696" width="24" height="24"/><rect x="312" y="696" width="24" height="24"/><rect x="360" y="696" width="24" height="24"/><rect x="384" y="696" width="24" height="24"/><rect x="456" y="696" width="24" height="24"/><rect x="480" y="696" width="24" height="24"/><rect x="528" y="696" width="24" height="24"/><rect x="552" y="696" width="24" height="24"/><rect x="624" y="696" width="24" height="24"/><rect x="672" y="696" width="24" height="24"/><rect x="768" y="696" width="24" height="24"/><rect x="792" y="696" width="24" height="24"/><rect x="864" y="696" width="24" height="24"/><rect x="888" y="696" width="24" height="24"/><rect x="912" y="696" width="24" height="24"/><rect x="48" y="720" width="24" height="24"/><rect x="72" y="720" width="24" height="24"/><rect x="96" y="720" width="24" height="24"/><rect x="120" y="720" width="24" height="24"/><rect x="144" y="720" width="24" height="24"/><rect x="168" y="720" width="24" height="24"/><rect x="192" y="720" width="24" height="24"/><rect x="264" y="720" width="24" height="24"/><rect x="384" y="720" width="24" height="24"/><rect x="408" y="720" width="24" height="24"/><rect x="600" y="720" width="24" height="24"/><rect x="624" y="720" width="24" height="24"/><rect x="672" y="720" width="24" height="24"/><rect x="720" y="720" width="24" height="24"/><rect x="744" y="720" width="24" height="24"/><rect x="768" y="720" width="24" height="24"/><rect x="792" y="720" width="24" height="24"/><rect x="816" y="720" width="24" height="24"/><rect x="840" y="720" width="24" height="24"/><rect x="864" y="720" width="24" height="24"/><rect x="912" y="720" width="24" height="24"/><rect x="240" y="744" width="24" height="24"/><rect x="312" y="744" width="24" height="24"/><rect x="336" y="744" width="24" height="24"/><rect x="384" y="744" width="24" height="24"/><rect x="408" y="744" width="24" height="24"/><rect x="480" y="744" width="24" height="24"/><rect x="504" y="744" width="24" height="24"/><rect x="552" y="744" width="24" height="24"/><rect x="600" y="744" width="24" height="24"/><rect x="624" y="744" width="24" height="24"/><rect x="672" y="744" width="24" height="24"/><rect x="696" y="744" width="24" height="24"/><rect x="720" y="744" width="24" height="24"/><rect x="816" y="744" width="24" height="24"/><rect x="840" y="744" width="24" height="24"/><rect x="888" y="744" width="24" height="24"/><rect x="48" y="768" width="24" height="24"/><rect x="72" y="768" width="24" height="24"/><rect x="96" y="768" width="24" height="24"/><rect x="120" y="768" width="24" height="24"/><rect x="144" y="768" width="24" height="24"/><rect x="168" y="768" width="24" height="24"/><rect x="192" y="768" width="24" height="24"/><rect x="240" y="768" width="24" height="24"/><rect x="264" y="768" width="24" height="24"/><rect x="288" y="768" width="24" height="24"/><rect x="336" y="768" width="24" height="24"/><rect x="408" y="768" width="24" height="24"/><rect x="528" y="768" width="24" height="24"/><rect x="552" y="768" width="24" height="24"/><rect x="576" y="768" width="24" height="24"/><rect x="600" y="768" width="24" height="24"/><rect x="624" y="768" width="24" height="24"/><rect x="672" y="768" width="24" height="24"/><rect x="720" y="768" width="24" height="24"/><rect x="768" y="768" width="24" height="24"/><rect x="816" y="768" width="24" height="24"/><rect x="840" y="768" width="24" height="24"/><rect x="864" y="768" width="24" height="24"/><rect x="48" y="792" width="24" height="24"/><rect x="192" y="792" width="24" height="24"/><rect x="240" y="792" width="24" height="24"/><rect x="264" y="792" width="24" height="24"/><rect x="336" y="792" width="24" height="24"/><rect x="384" y="792" width="24" height="24"/><rect x="408" y="792" width="24" height="24"/><rect x="456" y="792" width="24" height="24"/><rect x="528" y="792" width="24" height="24"/><rect x="600" y="792" width="24" height="24"/><rect x="624" y="792" width="24" height="24"/><rect x="672" y="792" width="24" height="24"/><rect x="720" y="792" width="24" height="24"/><rect x="816" y="792" width="24" height="24"/><rect x="864" y="792" width="24" height="24"/><rect x="888" y="792" width="24" height="24"/><rect x="912" y="792" width="24" height="24"/><rect x="48" y="816" width="24" height="24"/><rect x="96" y="816" width="24" height="24"/><rect x="120" y="816" width="24" height="24"/><rect x="144" y="816" width="24" height="24"/><rect x="192" y="816" width="24" height="24"/><rect x="240" y="816" width="24" height="24"/><rect x="264" y="816" width="24" height="24"/><rect x="288" y="816" width="24" height="24"/><rect x="456" y="816" width="24" height="24"/><rect x="480" y="816" width="24" height="24"/><rect x="552" y="816" width="24" height="24"/><rect x="600" y="816" width="24" height="24"/><rect x="720" y="816" width="24" height="24"/><rect x="744" y="816" width="24" height="24"/><rect x="768" y="816" width="24" height="24"/><rect x="792" y="816" width="24" height="24"/><rect x="816" y="816" width="24" height="24"/><rect x="840" y="816" width="24" height="24"/><rect x="864" y="816" width="24" height="24"/><rect x="888" y="816" width="24" height="24"/><rect x="48" y="840" width="24" height="24"/><rect x="96" y="840" width="24" height="24"/><rect x="120" y="840" width="24" height="24"/><rect x="144" y="840" width="24" height="24"/><rect x="192" y="840" width="24" height="24"/><rect x="360" y="840" width="24" height="24"/><rect x="432" y="840" width="24" height="24"/><rect x="456" y="840" width="24" height="24"/><rect x="480" y="840" width="24" height="24"/><rect x="504" y="840" width="24" height="24"/><rect x="576" y="840" width="24" height="24"/><rect x="624" y="840" width="24" height="24"/><rect x="648" y="840" width="24" height="24"/><rect x="768" y="840" width="24" height="24"/><rect x="840" y="840" width="24" height="24"/><rect x="48" y="864" width="24" height="24"/><rect x="96" y="864" width="24" height="24"/><rect x="120" y="864" width="24" height="24"/><rect x="144" y="864" width="24" height="24"/><rect x="192" y="864" width="24" height="24"/><rect x="264" y="864" width="24" height="24"/><rect x="312" y="864" width="24" height="24"/><rect x="384" y="864" width="24" height="24"/><rect x="408" y="864" width="24" height="24"/><rect x="432" y="864" width="24" height="24"/><rect x="552" y="864" width="24" height="24"/><rect x="576" y="864" width="24" height="24"/><rect x="600" y="864" width="24" height="24"/><rect x="624" y="864" width="24" height="24"/><rect x="648" y="864" width="24" height="24"/><rect x="696" y="864" width="24" height="24"/><rect x="768" y="864" width="24" height="24"/><rect x="888" y="864" width="24" height="24"/><rect x="48" y="888" width="24" height="24"/><rect x="192" y="888" width="24" height="24"/><rect x="288" y="888" width="24" height="24"/><rect x="336" y="888" width="24" height="24"/><rect x="360" y="888" width="24" height="24"/><rect x="408" y="888" width="24" height="24"/><rect x="432" y="888" width="24" height="24"/><rect x="456" y="888" width="24" height="24"/><rect x="480" y="888" width="24" height="24"/><rect x="528" y="888" width="24" height="24"/><rect x="552" y="888" width="24" height="24"/><rect x="600" y="888" width="24" height="24"/><rect x="696" y="888" width="24" height="24"/><rect x="744" y="888" width="24" height="24"/><rect x="792" y="888" width="24" height="24"/><rect x="864" y="888" width="24" height="24"/><rect x="888" y="888" width="24" height="24"/><rect x="48" y="912" width="24" height="24"/><rect x="72" y="912" width="24" height="24"/><rect x="96" y="912" width="24" height="24"/><rect x="120" y="912" width="24" height="24"/><rect x="144" y="912" width="24" height="24"/><rect x="168" y="912" width="24" height="24"/><rect x="192" y="912" width="24" height="24"/><rect x="288" y="912" width="24" height="24"/><rect x="336" y="912" width="24" height="24"/><rect x="360" y="912" width="24" height="24"/><rect x="384" y="912" width="24" height="24"/><rect x="408" y="912" width="24" height="24"/><rect x="432" y="912" width="24" height="24"/><rect x="456" y="912" width="24" height="24"/><rect x="480" y="912" width="24" height="24"/><rect x="504" y="912" width="24" height="24"/><rect x="552" y="912" width="24" height="24"/><rect x="576" y="912" width="24" height="24"/><rect x="624" y="912" width="24" height="24"/><rect x="648" y="912" width="24" height="24"/><rect x="864" y="912" width="24" height="24"/><rect x="888" y="912" width="24" height="24"/><rect x="912" y="912" width="24" height="24"/></g></svg>